<?xml version="1.0" encoding="utf-8"?>
<!-- Generator: Adobe Illustrator 16.0.3, SVG Export Plug-In . SVG Version: 6.00 Build 0)  -->
<!DOCTYPE svg PUBLIC "-//W3C//DTD SVG 1.1//EN" "http://www.w3.org/Graphics/SVG/1.1/DTD/svg11.dtd">
<svg version="1.1" id="Capa_1" xmlns="http://www.w3.org/2000/svg" xmlns:xlink="http://www.w3.org/1999/xlink" x="0px" y="0px"
	 width="164.992px" height="29.998px" viewBox="0 0 164.992 29.998" enable-background="new 0 0 164.992 29.998"
	 xml:space="preserve">
<g>
	<polygon fill="#71AAC0" points="31.747,6.408 27.982,16.408 35.513,16.408 31.809,6.408 	"/>
	<path fill="#71AAC0" d="M0.406,0.408v30h98v-30H0.406z M19.787,22.865c-0.532,0.844-1.211,1.525-2.039,2.057
		c-0.83,0.528-1.758,0.912-2.787,1.148c-1.023,0.241-2.047,0.359-3.064,0.359c-1.245,0-2.421-0.156-3.531-0.467
		c-1.108-0.312-2.083-0.783-2.922-1.417c-0.841-0.631-1.507-1.544-1.991-2.532c-0.489-0.982-0.732-1.605-0.732-3.605h2.801
		c0,1,0.183,1.846,0.542,2.516c0.364,0.678,0.843,1.283,1.434,1.72c0.589,0.435,1.279,0.783,2.068,0.99
		c0.786,0.209,1.598,0.323,2.426,0.323c0.663,0,1.334-0.054,2.008-0.181c0.673-0.123,1.28-0.331,1.82-0.631
		c0.539-0.301,0.974-0.711,1.307-1.229c0.333-0.518,0.499-1.183,0.499-1.989c0-0.768-0.204-1.388-0.607-1.864
		c-0.405-0.479-0.945-0.867-1.62-1.17c-0.67-0.301-1.434-0.543-2.286-0.73c-0.849-0.188-1.715-0.376-2.598-0.574
		c-0.881-0.199-1.744-0.424-2.599-0.687c-0.847-0.258-1.61-0.601-2.286-1.025c-0.674-0.424-1.213-0.974-1.615-1.647
		c-0.405-0.676-0.606-1.519-0.606-2.536c0-1.119,0.226-2.09,0.682-2.909c0.456-0.818,1.063-1.495,1.821-2.02
		c0.757-0.532,1.619-0.923,2.583-1.184c0.963-0.261,1.956-0.39,2.971-0.39c1.14,0,2.2,0.134,3.171,0.402
		c0.978,0.271,1.831,0.698,2.568,1.278c0.738,0.58,1.318,1.406,1.742,2.286c0.424,0.883,0.659,2.252,0.699,3.252h-2.799
		c-0.166-2-0.74-2.847-1.728-3.562c-0.984-0.719-2.243-1.12-3.778-1.12c-0.622,0-1.234,0.036-1.836,0.162
		C8.902,6.012,8.365,6.207,7.899,6.497C7.435,6.789,7.061,7.173,6.782,7.661C6.5,8.146,6.361,8.75,6.361,9.478
		c0,0.682,0.2,1.238,0.605,1.663c0.405,0.423,0.942,0.772,1.618,1.041c0.674,0.271,1.437,0.493,2.287,0.67
		c0.848,0.177,1.718,0.367,2.597,0.574c0.881,0.209,1.748,0.451,2.599,0.73c0.851,0.282,1.612,0.66,2.286,1.138
		c0.674,0.477,1.213,1.078,1.619,1.803c0.404,0.725,0.605,1.637,0.605,2.738C20.578,21.017,20.313,22.029,19.787,22.865z
		 M38.873,26.408l-2.427-7h-9.397l-2.487,7h-3.021l8.652-23h3.264l8.682,23H38.873z M59.406,26.408h-15v-23h3v20h12V26.408z
		 M77.406,26.408h-16v-23h16v3h-13v7h12v2h-12v8h13V26.408z M96.414,22.865c-0.531,0.844-1.211,1.525-2.039,2.057
		c-0.83,0.528-1.758,0.912-2.786,1.148c-1.025,0.241-2.048,0.359-3.065,0.359c-1.245,0-2.419-0.156-3.53-0.467
		c-1.108-0.312-2.083-0.783-2.922-1.417c-0.841-0.631-1.507-1.544-1.992-2.532c-0.488-0.982-0.732-1.605-0.732-3.605h2.802
		c0,1,0.183,1.846,0.541,2.516c0.365,0.678,0.844,1.283,1.434,1.72c0.591,0.435,1.28,0.783,2.069,0.99
		c0.786,0.209,1.597,0.323,2.426,0.323c0.663,0,1.335-0.054,2.007-0.181c0.674-0.123,1.28-0.331,1.82-0.631
		c0.54-0.301,0.973-0.711,1.307-1.229c0.332-0.518,0.499-1.183,0.499-1.989c0-0.768-0.204-1.388-0.605-1.864
		c-0.406-0.479-0.945-0.867-1.621-1.17c-0.672-0.301-1.434-0.543-2.287-0.73c-0.848-0.188-1.714-0.376-2.598-0.574
		c-0.88-0.199-1.744-0.424-2.598-0.687c-0.849-0.258-1.61-0.601-2.287-1.025c-0.673-0.424-1.213-0.974-1.615-1.647
		c-0.405-0.676-0.605-1.519-0.605-2.536c0-1.119,0.225-2.09,0.681-2.909c0.457-0.818,1.063-1.495,1.822-2.02
		c0.756-0.532,1.619-0.923,2.582-1.184c0.963-0.261,1.956-0.39,2.971-0.39c1.141,0,2.2,0.134,3.171,0.402
		c0.978,0.271,1.831,0.698,2.569,1.278c0.737,0.58,1.317,1.406,1.741,2.286c0.424,0.883,0.66,2.252,0.701,3.252h-2.799
		c-0.167-2-0.741-2.847-1.729-3.562c-0.983-0.719-2.243-1.12-3.778-1.12c-0.622,0-1.233,0.036-1.835,0.162
		c-0.601,0.124-1.138,0.318-1.604,0.608c-0.464,0.292-0.839,0.676-1.116,1.165c-0.282,0.485-0.422,1.089-0.422,1.816
		c0,0.682,0.2,1.238,0.606,1.663c0.404,0.423,0.941,0.772,1.618,1.041c0.673,0.271,1.436,0.493,2.286,0.67
		c0.849,0.177,1.718,0.367,2.597,0.574c0.881,0.209,1.748,0.451,2.599,0.73c0.851,0.282,1.613,0.66,2.286,1.138
		c0.675,0.477,1.213,1.078,1.619,1.803c0.405,0.725,0.605,1.637,0.605,2.738C97.205,21.017,96.939,22.029,96.414,22.865z"/>
</g>
<path fill="#5B5B5F" d="M110.52,3.718c1.389,0,2.57,0.201,3.548,0.607c0.978,0.405,1.768,0.939,2.38,1.602
	c0.611,0.666,1.058,1.422,1.339,2.271c0.279,0.853,0.419,1.733,0.419,2.646c0,0.891-0.14,1.769-0.419,2.63
	c-0.281,0.858-0.728,1.621-1.339,2.287c-0.612,0.662-1.402,1.197-2.38,1.599c-0.978,0.408-2.159,0.607-3.548,0.607h-5.131v7.965
	h-4.885V3.718H110.52z M109.183,14.171c0.559,0,1.101-0.04,1.618-0.124c0.519-0.083,0.975-0.244,1.369-0.483
	c0.395-0.236,0.711-0.574,0.946-1.009c0.239-0.438,0.36-1.009,0.36-1.712c0-0.706-0.121-1.278-0.36-1.712
	c-0.235-0.435-0.552-0.772-0.946-1.009c-0.395-0.242-0.851-0.403-1.369-0.483c-0.518-0.083-1.06-0.124-1.618-0.124h-3.794v6.655
	H109.183z"/>
<path fill="#5B5B5F" d="M133.233,3.718c0.996,0,1.892,0.161,2.688,0.48c0.8,0.322,1.484,0.762,2.056,1.326
	c0.568,0.558,1.004,1.208,1.305,1.943c0.3,0.735,0.454,1.529,0.454,2.38c0,1.307-0.277,2.437-0.825,3.389
	c-0.553,0.956-1.449,1.68-2.691,2.179v0.062c0.601,0.167,1.098,0.421,1.492,0.763c0.395,0.34,0.717,0.748,0.964,1.215
	c0.252,0.465,0.432,0.977,0.547,1.538c0.113,0.562,0.19,1.119,0.23,1.68c0.021,0.354,0.043,0.771,0.065,1.245
	c0.021,0.479,0.056,0.964,0.106,1.463c0.054,0.499,0.136,0.969,0.25,1.418c0.114,0.445,0.284,0.82,0.513,1.132h-4.884
	c-0.269-0.704-0.436-1.544-0.499-2.518c-0.06-0.977-0.156-1.911-0.28-2.802c-0.166-1.159-0.518-2.013-1.057-2.549
	c-0.54-0.543-1.422-0.811-2.646-0.811h-4.885v8.679h-4.884V3.718H133.233z M131.488,13.768c1.122,0,1.962-0.249,2.522-0.746
	c0.559-0.499,0.838-1.309,0.838-2.428c0-1.076-0.279-1.859-0.838-2.348c-0.561-0.489-1.4-0.73-2.522-0.73h-5.351v6.252H131.488z"/>
<path fill="#5B5B5F" d="M143.5,10.298c0.497-1.419,1.213-2.659,2.145-3.717c0.935-1.057,2.08-1.889,3.438-2.491
	c1.358-0.601,2.889-0.901,4.59-0.901c1.722,0,3.257,0.3,4.604,0.901c1.347,0.602,2.49,1.434,3.425,2.491
	c0.931,1.058,1.646,2.297,2.144,3.717c0.496,1.42,0.749,2.96,0.749,4.619c0,1.621-0.253,3.129-0.749,4.53
	c-0.497,1.397-1.213,2.616-2.144,3.654c-0.935,1.036-2.078,1.852-3.425,2.443c-1.348,0.59-2.883,0.885-4.604,0.885
	c-1.701,0-3.231-0.295-4.59-0.885c-1.357-0.592-2.503-1.407-3.438-2.443c-0.932-1.038-1.647-2.257-2.145-3.654
	c-0.499-1.401-0.748-2.909-0.748-4.53C142.752,13.258,143.001,11.718,143.5,10.298z M147.963,17.641
	c0.218,0.883,0.566,1.675,1.044,2.381c0.476,0.703,1.098,1.271,1.866,1.695c0.765,0.424,1.698,0.639,2.799,0.639
	c1.1,0,2.033-0.215,2.801-0.639s1.391-0.992,1.865-1.695c0.478-0.706,0.824-1.498,1.045-2.381c0.217-0.883,0.327-1.79,0.327-2.724
	c0-0.972-0.11-1.917-0.327-2.829c-0.221-0.913-0.567-1.729-1.045-2.442c-0.475-0.717-1.098-1.288-1.865-1.712
	c-0.768-0.424-1.701-0.639-2.801-0.639c-1.101,0-2.034,0.215-2.799,0.639c-0.769,0.424-1.391,0.996-1.866,1.712
	c-0.478,0.713-0.826,1.529-1.044,2.442c-0.217,0.912-0.327,1.857-0.327,2.829C147.636,15.851,147.746,16.758,147.963,17.641z"/>
</svg>
