<svg height="233" width="899">
<path d="M0 0L0 84L13.8079 63C27.0207 46.5018 43.5497 33.7456 63 25.4275C126.333 -1.65753 206.576 31.4885 224.845 100C239.344 154.373 206.288 229.241 143 232C148.951 234.497 157.58 233 164 233L208 233L363 233L899 233L899 107L892.984 111.825C876.096 120.14 873.851 85.0138 892.955 92.8534L898 97C901.407 88.8817 899 75.7968 899 67L899 0L722 0L722 94C726.948 90.6201 731.074 86.7841 737 85.1597L750 84.2894C786.356 89.0677 778 139.018 778 165L758 165C758 148.628 762.189 125.268 755.467 110.004C750.597 98.9469 734.346 96.7368 726.638 106.185C716.189 118.995 722 149.309 722 165L702 165L702 0L0 0z" style="fill:#ffffff; stroke:none;">
<path d="M702 0L702 165L722 165C722 149.148 716.427 120.242 726.638 107.093C734.67 96.7511 750.33 99.2484 755.467 111.001C762.055 126.072 758 148.855 758 165L778 165C778 145.38 781.779 120.628 774.532 102C765.947 79.9297 737.189 79.5062 722 94L722 0L702 0z" style="fill:#333f49; stroke:none;">
<path d="M97 16.4252C68.3739 20.3218 40.2974 32.0642 20.7184 54.0147C13.4023 62.2168 6.29487 70.8657 1.7963 81C0.712145 83.4424 -1.87772 91.1123 3.14815 91.2485C8.02859 91.3806 11.7053 84.2871 14.2353 81C21.7271 71.2664 30.2046 62.3469 40 54.8989C69.9077 32.1586 110.905 25.2364 146 39.4529C204.419 63.1179 229.848 140.253 182 186.985C174.498 194.313 165.754 199.963 156 203.796C131.884 213.27 102.423 207.507 84.2863 188.83C62.9473 166.856 61.0688 126.555 90 109.353C101.099 102.753 115.181 101.926 126 109.638C134.71 115.847 141.764 127.01 134.351 136.956C126.087 148.044 124.915 134.621 119.772 130.742C111.791 124.723 101.304 132.21 98.6096 140C87.4236 172.337 132.766 181.726 153 167.211C179.419 148.26 173.38 107.779 152 88.0934C134.291 71.7882 104.689 68.5354 83 78.3117C33.3545 100.689 27.4293 166.542 61.2894 204.996C81.0494 227.437 112.951 236.281 142 232.714C212.731 224.027 246.345 144.536 219.138 83C198.836 37.0815 146.451 9.69371 97 16.4252z" style="fill:#015da5; stroke:none;">
<path d="M0 91L0 233L115 233L89 224.68C66.7554 214.134 47.968 193.21 42.2361 169C29.5194 115.287 76.4707 55.1058 134 77.615C151.654 84.5222 167.613 101.641 169.829 121C172.811 147.033 155.154 179.045 125 174.7C106.765 172.072 83.772 145.396 106.04 131.148C110.804 128.1 117.762 128.192 121.262 133.109C123.566 136.346 123.412 142.601 129.012 141.508C136.269 140.091 138.71 130.147 137.319 124C135.108 114.228 126.184 107.737 117 105.043C92.6349 97.896 71.239 120.358 68.2894 143C65.4482 164.809 75.9406 185.474 94 197.64C136.661 226.38 191.764 195.589 204.572 150C219.016 98.5838 183.041 47.4633 133 34.8951C100.553 26.7457 64.1953 35.0709 38 55.669C29.0106 62.7376 21.2027 70.9477 14.2353 80C10.3341 85.0686 7.07526 91.2218 0 91z" style="fill:#ffffff; stroke:none;">
<path d="M556 60L556 86L545 86L545 103L556 103C556 118.92 549.349 156.328 567.015 164.95C575.08 168.886 584.704 166.711 593 165L591 149C569.533 150.5 576 117.387 576 103L592 103L592 86L576 86L576 60L556 60M291 97L291 86L271 86L271 206L291 206L291 155C304.63 172.739 331.549 171.894 345.674 154.999C362.635 134.713 357.392 94.9157 330 86.2199C323.903 84.2844 317.316 83.4273 311 84.6188C302.599 86.2038 296.885 91.1314 291 97M445 155C443.368 151.146 439.78 144.501 434.999 144.113L420 150.971C404.464 155.964 388.29 147.9... 155L667 165L686 165L686 86L667 86L667 98C652.801 79.377 626.096 79.6264 611.379 98C595.105 118.317 600.591 155.167 626 165.37C632.215 167.866 639.367 168.656 646 167.7C654.851 166.424 661.139 161.416 667 155M822 84.439C790.474 89.4015 776.609 129.516 797.329 153.985C807.409 165.889 824.188 168.834 839 166.7C870.874 162.107 882.678 120.64 862.671 97.0147C853.078 85.6856 836.167 82.209 822 84.439M884.044 92.7423C871.866 97.6956 880.68 117.089 892.985 112.258C905.587 107.309 897.424 87.3002 884.044 92.7423z" style="fill:#333f49; stroke:none;">
<path d="M884 109L885 96C893.365 96.2724 892.043 101.398 894 108C903.397 95.3048 880.578 89.2319 881.578 102.995L884 109M386 119L427 119C425.635 92.6915 388.273 93.1263 386 119M888 98L890 101L888 98M825 99.5293C797.693 105.84 804.634 159.164 834 152.471C862.861 145.892 856.07 92.3492 825 99.5293M312 101.609C283.293 103.35 285.162 151.887 314 150.867C343.129 149.837 341.577 99.8153 312 101.609M641 101.519C612.948 107.47 618.832 155.927 648 150.316C676.396 144.853 669.646 95.4426 641 101.519M888 104L886 109L892 110L888 104z" style="fill:#ffffff; stroke:none;">
</svg>